<?xml version="1.0" encoding="UTF-8" standalone="no"?><!DOCTYPE svg PUBLIC "-//W3C//DTD SVG 1.1//EN" "http://www.w3.org/Graphics/SVG/1.1/DTD/svg11.dtd"><svg width="100%" height="100%" viewBox="0 0 910 190" version="1.1" xmlns="http://www.w3.org/2000/svg" xmlns:xlink="http://www.w3.org/1999/xlink" xml:space="preserve" xmlns:serif="http://www.serif.com/" style="fill-rule:evenodd;clip-rule:evenodd;stroke-linecap:round;stroke-linejoin:round;stroke-miterlimit:1.5;"><g><g><circle cx="96.221" cy="90.54" r="84.629" style="fill:none;stroke:#fff;stroke-width:4px;"/><path d="M96.221,16.346c40.949,0 74.195,33.245 74.195,74.194c0,40.949 -33.246,74.195 -74.195,74.195c-40.949,0 -74.194,-33.246 -74.194,-74.195c0,-40.949 33.245,-74.194 74.194,-74.194Zm0,59.363c8.186,0 14.832,6.646 14.832,14.831c0,8.186 -6.646,14.831 -14.832,14.831c-8.185,0 -14.831,-6.645 -14.831,-14.831c0,-8.185 6.646,-14.831 14.831,-14.831Z" style="fill:#fff;"/><circle cx="96.221" cy="90.54" r="3.179" style="fill:#fff;"/></g><g><text x="191.468px" y="105.127px" style="font-family:'SourceSansPro-Bold', 'Source Sans Pro', sans-serif;font-weight:700;font-size:144px;fill:#fff;">p<tspan x="272.396px 349.292px 423.596px 495.596px " y="105.127px 105.127px 105.127px 105.127px ">aget</tspan>urner</text><g><path d="M207.994,121.163c4.029,-2.591 9.441,-1.659 12.354,2.236c2.912,3.894 2.275,9.35 -1.35,12.481l0.014,0.018l-0.152,0.099c-0.121,0.1 -0.246,0.198 -0.373,0.294c-0.466,0.348 -0.954,0.645 -1.457,0.893l-52.777,34.238l2.527,3.392l-14.763,9.953c-2.036,1.522 -4.924,1.105 -6.446,-0.93l-3.861,-5.164c-1.522,-2.035 -1.105,-4.924 0.93,-6.446l13.269,-12.006l2.526,3.391l47.752,-40.93c0.38,-0.412 0.803,-0.796 1.268,-1.144c0.128,-0.096 0.257,-0.187 0.388,-0.275l0.137,-0.118l0.014,0.018Z" style="fill:#fff;"/></g></g></g></svg>