<?xml version="1.0" encoding="UTF-8" standalone="no"?><!DOCTYPE svg PUBLIC "-//W3C//DTD SVG 1.1//EN" "http://www.w3.org/Graphics/SVG/1.1/DTD/svg11.dtd"><svg width="100%" height="100%" viewBox="0 0 910 190" version="1.1" xmlns="http://www.w3.org/2000/svg" xmlns:xlink="http://www.w3.org/1999/xlink" xml:space="preserve" xmlns:serif="http://www.serif.com/" style="fill-rule:evenodd;clip-rule:evenodd;stroke-linecap:round;stroke-linejoin:round;stroke-miterlimit:1.5;"><g><g><circle cx="94.221" cy="91.291" r="84.629" style="fill:none;stroke:#784baa;stroke-width:4px;"/><path d="M94.221,17.097c40.949,0 74.195,33.245 74.195,74.194c0,40.949 -33.246,74.194 -74.195,74.194c-40.949,0 -74.194,-33.245 -74.194,-74.194c0,-40.949 33.245,-74.194 74.194,-74.194Zm0,59.363c8.186,0 14.832,6.645 14.832,14.831c0,8.185 -6.646,14.831 -14.832,14.831c-8.185,0 -14.831,-6.646 -14.831,-14.831c0,-8.186 6.646,-14.831 14.831,-14.831Z" style="fill:#784baa;"/><circle cx="94.221" cy="91.291" r="3.179" style="fill:#784baa;"/></g><g><text x="189.468px" y="105.878px" style="font-family:'SourceSansPro-Bold', 'Source Sans Pro', sans-serif;font-weight:700;font-size:144px;fill:#784baa;">p<tspan x="270.396px 347.292px 421.596px 493.596px " y="105.878px 105.878px 105.878px 105.878px ">aget</tspan>urner</text><g><path d="M205.994,121.914c4.029,-2.592 9.441,-1.66 12.354,2.235c2.912,3.895 2.275,9.35 -1.35,12.481l0.014,0.019l-0.152,0.098c-0.121,0.101 -0.246,0.199 -0.373,0.294c-0.466,0.348 -0.954,0.646 -1.457,0.893l-52.777,34.238l2.527,3.392l-14.763,9.954c-2.036,1.522 -4.924,1.105 -6.446,-0.931l-3.861,-5.163c-1.522,-2.036 -1.105,-4.924 0.93,-6.446l13.269,-12.007l2.526,3.391l47.752,-40.929c0.38,-0.413 0.803,-0.797 1.268,-1.145c0.128,-0.095 0.257,-0.187 0.388,-0.274l0.137,-0.118l0.014,0.018Z" style="fill:#784baa;"/></g></g></g></svg>